<svg width="1363" height="301" viewBox="0 0 1363 301" fill="none" xmlns="http://www.w3.org/2000/svg">
<rect width="1363" height="301" rx="15" fill="#F0F0F0"/>
<path d="M0 15C0 6.71573 6.71573 0 15 0H37V301H15C6.71573 301 0 294.284 0 286V15Z" fill="#5DB075"/>
<path d="M110.584 130.733H100.862V123.456H110.584C111.909 123.456 112.983 123.232 113.807 122.784C114.63 122.337 115.23 121.719 115.606 120.931C116 120.125 116.197 119.221 116.197 118.219C116.197 117.145 116 116.151 115.606 115.238C115.23 114.325 114.63 113.591 113.807 113.036C112.983 112.463 111.909 112.176 110.584 112.176H104.407V144H94.981V104.898H110.584C113.717 104.898 116.412 105.471 118.667 106.617C120.941 107.763 122.687 109.339 123.904 111.344C125.122 113.331 125.73 115.605 125.73 118.165C125.73 120.689 125.122 122.892 123.904 124.771C122.687 126.651 120.941 128.119 118.667 129.176C116.412 130.214 113.717 130.733 110.584 130.733ZM150.948 133.607C150.948 132.998 150.858 132.452 150.679 131.969C150.5 131.467 150.169 131.002 149.686 130.572C149.202 130.143 148.504 129.713 147.591 129.283C146.696 128.836 145.514 128.37 144.046 127.887C142.327 127.314 140.671 126.669 139.078 125.953C137.484 125.219 136.061 124.369 134.808 123.402C133.554 122.417 132.561 121.271 131.827 119.964C131.093 118.639 130.726 117.1 130.726 115.345C130.726 113.662 131.102 112.149 131.854 110.807C132.605 109.446 133.653 108.291 134.996 107.342C136.356 106.375 137.95 105.641 139.776 105.14C141.602 104.621 143.598 104.361 145.765 104.361C148.629 104.361 151.154 104.863 153.338 105.865C155.54 106.85 157.259 108.255 158.494 110.082C159.747 111.89 160.374 114.029 160.374 116.5H151.001C151.001 115.515 150.796 114.647 150.384 113.895C149.99 113.143 149.39 112.552 148.584 112.123C147.779 111.693 146.767 111.478 145.55 111.478C144.368 111.478 143.375 111.657 142.569 112.015C141.763 112.373 141.154 112.857 140.743 113.465C140.331 114.056 140.125 114.71 140.125 115.426C140.125 116.017 140.286 116.554 140.608 117.037C140.949 117.503 141.423 117.941 142.032 118.353C142.658 118.765 143.41 119.159 144.288 119.535C145.183 119.911 146.185 120.278 147.295 120.636C149.372 121.298 151.216 122.041 152.828 122.865C154.457 123.67 155.826 124.592 156.937 125.631C158.064 126.651 158.915 127.815 159.488 129.122C160.079 130.429 160.374 131.906 160.374 133.553C160.374 135.308 160.034 136.865 159.354 138.226C158.673 139.587 157.697 140.742 156.426 141.69C155.155 142.621 153.633 143.329 151.861 143.812C150.088 144.295 148.11 144.537 145.926 144.537C143.921 144.537 141.942 144.286 139.991 143.785C138.057 143.266 136.303 142.478 134.727 141.422C133.152 140.348 131.889 138.978 130.94 137.313C130.009 135.63 129.544 133.634 129.544 131.324H138.997C138.997 132.47 139.149 133.437 139.454 134.225C139.758 135.012 140.206 135.648 140.796 136.131C141.387 136.597 142.112 136.937 142.972 137.152C143.831 137.349 144.816 137.447 145.926 137.447C147.125 137.447 148.092 137.277 148.826 136.937C149.56 136.579 150.097 136.113 150.438 135.541C150.778 134.95 150.948 134.305 150.948 133.607ZM172.325 104.898L179.522 121.871L186.746 104.898H196.897L184.329 129.955V144H174.742V129.955L162.146 104.898H172.325ZM225.606 136.749V144H205.84V136.749H225.606ZM209.197 104.898V144H199.771V104.898H209.197ZM256.49 136.749V144H235.65V136.749H256.49ZM239.007 104.898V144H229.581V104.898H239.007ZM253.804 120.421V127.43H235.65V120.421H253.804ZM256.57 104.898V112.176H235.65V104.898H256.57ZM276.309 127.376H266.238L266.185 121.2H274.349C275.817 121.2 276.989 121.039 277.867 120.716C278.744 120.376 279.38 119.884 279.773 119.239C280.185 118.595 280.391 117.789 280.391 116.822C280.391 115.712 280.185 114.817 279.773 114.137C279.362 113.456 278.708 112.964 277.813 112.66C276.936 112.337 275.799 112.176 274.402 112.176H269.783V144H260.357V104.898H274.402C276.819 104.898 278.977 105.122 280.875 105.57C282.772 106 284.384 106.662 285.708 107.557C287.051 108.452 288.072 109.58 288.77 110.941C289.468 112.284 289.817 113.868 289.817 115.694C289.817 117.288 289.477 118.783 288.797 120.179C288.117 121.576 286.98 122.713 285.386 123.59C283.811 124.449 281.653 124.897 278.914 124.933L276.309 127.376ZM275.933 144H263.956L267.178 136.749H275.933C277.222 136.749 278.252 136.552 279.021 136.158C279.809 135.746 280.373 135.209 280.713 134.547C281.071 133.867 281.25 133.115 281.25 132.291C281.25 131.288 281.08 130.42 280.74 129.686C280.418 128.952 279.899 128.388 279.183 127.994C278.466 127.582 277.509 127.376 276.309 127.376H268.387L268.44 121.2H277.92L280.123 123.67C282.736 123.563 284.804 123.93 286.326 124.771C287.866 125.613 288.967 126.723 289.629 128.102C290.292 129.48 290.623 130.921 290.623 132.425C290.623 134.986 290.068 137.125 288.958 138.844C287.866 140.562 286.228 141.852 284.043 142.711C281.859 143.57 279.156 144 275.933 144Z" fill="black"/>
<path d="M99.3486 55.1172V80H94.2217V55.1172H99.3486ZM114.251 55.1172L104.39 67.4048L98.6992 73.5229L97.7764 68.6694L101.622 63.4058L107.962 55.1172H114.251ZM108.423 80L101.092 68.4985L104.886 65.3198L114.49 80H108.423ZM126.146 75.8301V67.5928C126.146 67.0003 126.049 66.4933 125.855 66.0718C125.661 65.6388 125.359 65.3027 124.949 65.0635C124.55 64.8242 124.032 64.7046 123.394 64.7046C122.847 64.7046 122.374 64.8014 121.976 64.9951C121.577 65.1774 121.269 65.4451 121.053 65.7983C120.836 66.1401 120.728 66.5446 120.728 67.0117H115.806C115.806 66.2256 115.988 65.4793 116.353 64.7729C116.718 64.0666 117.247 63.4456 117.942 62.9102C118.637 62.3633 119.463 61.936 120.42 61.6284C121.389 61.3208 122.471 61.167 123.667 61.167C125.103 61.167 126.379 61.4062 127.496 61.8848C128.612 62.3633 129.489 63.0811 130.127 64.0381C130.777 64.9951 131.102 66.1914 131.102 67.627V75.5396C131.102 76.5535 131.164 77.3853 131.29 78.0347C131.415 78.6727 131.597 79.231 131.836 79.7095V80H126.863C126.624 79.4987 126.442 78.8721 126.316 78.1201C126.202 77.3568 126.146 76.5934 126.146 75.8301ZM126.795 68.7378L126.829 71.5234H124.078C123.428 71.5234 122.864 71.5975 122.386 71.7456C121.907 71.8937 121.514 72.1045 121.207 72.3779C120.899 72.64 120.671 72.9476 120.523 73.3008C120.386 73.654 120.318 74.0413 120.318 74.4629C120.318 74.8844 120.415 75.2661 120.608 75.6079C120.802 75.9383 121.081 76.2004 121.446 76.394C121.81 76.5763 122.238 76.6675 122.728 76.6675C123.468 76.6675 124.112 76.5194 124.659 76.2231C125.206 75.9269 125.627 75.5623 125.923 75.1294C126.231 74.6965 126.39 74.2863 126.402 73.8989L127.701 75.9839C127.518 76.451 127.268 76.9352 126.949 77.4365C126.641 77.9378 126.248 78.4106 125.77 78.855C125.291 79.2879 124.716 79.6468 124.043 79.9316C123.371 80.2051 122.574 80.3418 121.651 80.3418C120.477 80.3418 119.412 80.1082 118.455 79.6411C117.509 79.1626 116.757 78.5075 116.199 77.6758C115.652 76.8327 115.379 75.8757 115.379 74.8047C115.379 73.8363 115.561 72.9761 115.926 72.2241C116.29 71.4722 116.826 70.8398 117.532 70.3271C118.25 69.8031 119.144 69.41 120.215 69.1479C121.286 68.8745 122.528 68.7378 123.941 68.7378H126.795ZM139.817 65.542V80H134.896V61.5088H139.527L139.817 65.542ZM145.389 61.3892L145.303 65.9521C145.064 65.918 144.773 65.8895 144.432 65.8667C144.101 65.8325 143.799 65.8154 143.526 65.8154C142.831 65.8154 142.227 65.9066 141.714 66.0889C141.213 66.2598 140.792 66.5161 140.45 66.8579C140.119 67.1997 139.869 67.6156 139.698 68.1055C139.538 68.5954 139.447 69.1536 139.424 69.7803L138.433 69.4727C138.433 68.2764 138.553 67.1769 138.792 66.1743C139.031 65.1603 139.379 64.2773 139.834 63.5254C140.302 62.7734 140.871 62.1924 141.543 61.7822C142.216 61.3721 142.985 61.167 143.851 61.167C144.124 61.167 144.403 61.1898 144.688 61.2354C144.973 61.2695 145.206 61.3208 145.389 61.3892ZM152.908 61.5088V80H147.969V61.5088H152.908ZM147.662 56.6895C147.662 55.9717 147.912 55.3792 148.414 54.9121C148.915 54.445 149.587 54.2114 150.43 54.2114C151.262 54.2114 151.928 54.445 152.43 54.9121C152.942 55.3792 153.199 55.9717 153.199 56.6895C153.199 57.4072 152.942 57.9997 152.43 58.4668C151.928 58.9339 151.262 59.1675 150.43 59.1675C149.587 59.1675 148.915 58.9339 148.414 58.4668C147.912 57.9997 147.662 57.4072 147.662 56.6895ZM161.897 65.3369V80H156.958V61.5088H161.59L161.897 65.3369ZM161.214 70.105H159.847C159.847 68.8175 160 67.6326 160.308 66.5503C160.627 65.4565 161.089 64.5109 161.692 63.7134C162.308 62.9045 163.065 62.2778 163.965 61.8335C164.865 61.3892 165.908 61.167 167.093 61.167C167.913 61.167 168.665 61.2923 169.349 61.543C170.032 61.7822 170.619 62.1639 171.109 62.688C171.61 63.2007 171.998 63.8729 172.271 64.7046C172.544 65.5249 172.681 66.5104 172.681 67.6611V80H167.759V68.208C167.759 67.3649 167.645 66.7155 167.417 66.2598C167.19 65.804 166.865 65.485 166.443 65.3027C166.033 65.1204 165.538 65.0293 164.957 65.0293C164.319 65.0293 163.76 65.1603 163.282 65.4224C162.815 65.6844 162.427 66.049 162.12 66.5161C161.812 66.9718 161.584 67.5073 161.436 68.1226C161.288 68.7378 161.214 69.3986 161.214 70.105ZM172.22 69.541L170.459 69.7632C170.459 68.5555 170.608 67.4333 170.904 66.3965C171.211 65.3597 171.661 64.4482 172.254 63.6621C172.858 62.876 173.604 62.2664 174.493 61.8335C175.381 61.3892 176.407 61.167 177.569 61.167C178.458 61.167 179.266 61.298 179.996 61.5601C180.725 61.8107 181.346 62.2152 181.858 62.7734C182.382 63.3203 182.781 64.0381 183.055 64.9268C183.34 65.8154 183.482 66.9035 183.482 68.1909V80H178.543V68.1909C178.543 67.3364 178.429 66.687 178.201 66.2427C177.985 65.7869 177.666 65.4736 177.244 65.3027C176.834 65.1204 176.344 65.0293 175.774 65.0293C175.182 65.0293 174.664 65.1489 174.219 65.3882C173.775 65.616 173.405 65.9351 173.108 66.3452C172.812 66.7554 172.59 67.2339 172.442 67.7808C172.294 68.3162 172.22 68.903 172.22 69.541ZM201.443 55.1172V80H196.316V55.1172H201.443ZM216.346 55.1172L206.485 67.4048L200.794 73.5229L199.871 68.6694L203.716 63.4058L210.057 55.1172H216.346ZM210.518 80L203.187 68.4985L206.98 65.3198L216.585 80H210.518ZM223.062 53.75V80H218.14V53.75H223.062ZM222.361 70.105H221.011C221.023 68.8175 221.194 67.6326 221.524 66.5503C221.854 65.4565 222.327 64.5109 222.942 63.7134C223.558 62.9045 224.292 62.2778 225.147 61.8335C226.013 61.3892 226.97 61.167 228.018 61.167C228.93 61.167 229.756 61.298 230.496 61.5601C231.248 61.8107 231.892 62.2209 232.427 62.7905C232.974 63.3488 233.396 64.0837 233.692 64.9951C233.988 65.9066 234.136 67.0117 234.136 68.3105V80H229.18V68.2764C229.18 67.4561 229.061 66.8123 228.821 66.3452C228.593 65.8667 228.257 65.5306 227.813 65.3369C227.38 65.1318 226.845 65.0293 226.207 65.0293C225.5 65.0293 224.896 65.1603 224.395 65.4224C223.905 65.6844 223.512 66.049 223.216 66.5161C222.92 66.9718 222.703 67.5073 222.566 68.1226C222.43 68.7378 222.361 69.3986 222.361 70.105ZM247.859 75.8301V67.5928C247.859 67.0003 247.763 66.4933 247.569 66.0718C247.375 65.6388 247.073 65.3027 246.663 65.0635C246.264 64.8242 245.746 64.7046 245.108 64.7046C244.561 64.7046 244.088 64.8014 243.689 64.9951C243.291 65.1774 242.983 65.4451 242.767 65.7983C242.55 66.1401 242.442 66.5446 242.442 67.0117H237.52C237.52 66.2256 237.702 65.4793 238.067 64.7729C238.431 64.0666 238.961 63.4456 239.656 62.9102C240.351 62.3633 241.177 61.936 242.134 61.6284C243.103 61.3208 244.185 61.167 245.381 61.167C246.817 61.167 248.093 61.4062 249.209 61.8848C250.326 62.3633 251.203 63.0811 251.841 64.0381C252.491 64.9951 252.815 66.1914 252.815 67.627V75.5396C252.815 76.5535 252.878 77.3853 253.003 78.0347C253.129 78.6727 253.311 79.231 253.55 79.7095V80H248.577C248.338 79.4987 248.156 78.8721 248.03 78.1201C247.916 77.3568 247.859 76.5934 247.859 75.8301ZM248.509 68.7378L248.543 71.5234H245.792C245.142 71.5234 244.578 71.5975 244.1 71.7456C243.621 71.8937 243.228 72.1045 242.92 72.3779C242.613 72.64 242.385 72.9476 242.237 73.3008C242.1 73.654 242.032 74.0413 242.032 74.4629C242.032 74.8844 242.129 75.2661 242.322 75.6079C242.516 75.9383 242.795 76.2004 243.16 76.394C243.524 76.5763 243.951 76.6675 244.441 76.6675C245.182 76.6675 245.826 76.5194 246.373 76.2231C246.919 75.9269 247.341 75.5623 247.637 75.1294C247.945 74.6965 248.104 74.2863 248.116 73.8989L249.415 75.9839C249.232 76.451 248.982 76.9352 248.663 77.4365C248.355 77.9378 247.962 78.4106 247.483 78.855C247.005 79.2879 246.43 79.6468 245.757 79.9316C245.085 80.2051 244.288 80.3418 243.365 80.3418C242.191 80.3418 241.126 80.1082 240.169 79.6411C239.223 79.1626 238.471 78.5075 237.913 77.6758C237.366 76.8327 237.093 75.8757 237.093 74.8047C237.093 73.8363 237.275 72.9761 237.64 72.2241C238.004 71.4722 238.54 70.8398 239.246 70.3271C239.964 69.8031 240.858 69.41 241.929 69.1479C243 68.8745 244.242 68.7378 245.655 68.7378H248.509ZM261.805 53.75V80H256.866V53.75H261.805ZM271.067 61.5088V80H266.128V61.5088H271.067ZM265.821 56.6895C265.821 55.9717 266.071 55.3792 266.573 54.9121C267.074 54.445 267.746 54.2114 268.589 54.2114C269.421 54.2114 270.088 54.445 270.589 54.9121C271.102 55.3792 271.358 55.9717 271.358 56.6895C271.358 57.4072 271.102 57.9997 270.589 58.4668C270.088 58.9339 269.421 59.1675 268.589 59.1675C267.746 59.1675 267.074 58.9339 266.573 58.4668C266.071 57.9997 265.821 57.4072 265.821 56.6895ZM281.407 80H276.451V59.8682C276.451 58.4668 276.724 57.2876 277.271 56.3306C277.829 55.3621 278.61 54.633 279.612 54.1431C280.626 53.6418 281.828 53.3911 283.218 53.3911C283.674 53.3911 284.113 53.4253 284.534 53.4937C284.956 53.5506 285.366 53.6247 285.765 53.7158L285.713 57.4243C285.497 57.3674 285.269 57.3275 285.03 57.3047C284.791 57.2819 284.511 57.2705 284.192 57.2705C283.6 57.2705 283.093 57.373 282.671 57.5781C282.261 57.7718 281.948 58.0623 281.731 58.4497C281.515 58.8371 281.407 59.3099 281.407 59.8682V80ZM285.098 61.5088V64.9951H273.699V61.5088H285.098ZM295.779 80.3418C294.344 80.3418 293.056 80.1139 291.917 79.6582C290.778 79.1911 289.809 78.5474 289.012 77.7271C288.226 76.9067 287.622 75.9554 287.2 74.873C286.779 73.7793 286.568 72.6172 286.568 71.3867V70.7031C286.568 69.3018 286.767 68.02 287.166 66.8579C287.565 65.6958 288.134 64.6875 288.875 63.833C289.627 62.9785 290.538 62.3234 291.609 61.8677C292.68 61.4006 293.888 61.167 295.232 61.167C296.543 61.167 297.705 61.3835 298.719 61.8164C299.733 62.2493 300.582 62.8646 301.265 63.6621C301.96 64.4596 302.484 65.4167 302.837 66.5332C303.191 67.6383 303.367 68.8688 303.367 70.2246V72.2754H288.67V68.9941H298.531V68.6182C298.531 67.9346 298.405 67.325 298.155 66.7896C297.916 66.2427 297.551 65.8097 297.061 65.4907C296.571 65.1717 295.944 65.0122 295.181 65.0122C294.532 65.0122 293.973 65.1546 293.506 65.4395C293.039 65.7243 292.658 66.123 292.361 66.6357C292.076 67.1484 291.86 67.7523 291.712 68.4473C291.575 69.1309 291.507 69.8828 291.507 70.7031V71.3867C291.507 72.1273 291.609 72.8109 291.814 73.4375C292.031 74.0641 292.333 74.6053 292.72 75.061C293.119 75.5168 293.597 75.87 294.156 76.1206C294.725 76.3713 295.369 76.4966 296.087 76.4966C296.976 76.4966 297.802 76.3257 298.565 75.9839C299.34 75.6307 300.006 75.1009 300.564 74.3945L302.957 76.9922C302.57 77.5505 302.04 78.0859 301.368 78.5986C300.707 79.1113 299.909 79.5329 298.975 79.8633C298.041 80.1823 296.976 80.3418 295.779 80.3418ZM310.972 53.75V80H306.05V53.75H310.972ZM310.271 70.105H308.921C308.933 68.8175 309.104 67.6326 309.434 66.5503C309.764 65.4565 310.237 64.5109 310.853 63.7134C311.468 62.9045 312.203 62.2778 313.057 61.8335C313.923 61.3892 314.88 61.167 315.928 61.167C316.84 61.167 317.666 61.298 318.406 61.5601C319.158 61.8107 319.802 62.2209 320.337 62.7905C320.884 63.3488 321.306 64.0837 321.602 64.9951C321.898 65.9066 322.046 67.0117 322.046 68.3105V80H317.09V68.2764C317.09 67.4561 316.971 66.8123 316.731 66.3452C316.504 65.8667 316.167 65.5306 315.723 65.3369C315.29 65.1318 314.755 65.0293 314.117 65.0293C313.41 65.0293 312.806 65.1603 312.305 65.4224C311.815 65.6844 311.422 66.049 311.126 66.5161C310.83 66.9718 310.613 67.5073 310.477 68.1226C310.34 68.7378 310.271 69.3986 310.271 70.105Z" fill="#888888"/>
<rect x="92" y="181" width="1179" height="80" rx="13.3333" fill="#CCCCCC"/>
<rect x="107" y="196.333" width="208" height="49.3333" rx="4.66667" fill="#888888" stroke="#888888" stroke-width="4"/>
<path d="M150.833 213.167H156.802C157.969 213.167 158.983 213.34 159.844 213.687C160.705 214.035 161.368 214.549 161.833 215.229C162.306 215.91 162.542 216.75 162.542 217.75C162.542 218.618 162.406 219.344 162.135 219.927C161.865 220.51 161.486 220.993 161 221.375C160.521 221.75 159.962 222.059 159.323 222.302L158.125 222.979H153.115L153.094 220.156H156.802C157.267 220.156 157.653 220.073 157.958 219.906C158.264 219.74 158.493 219.503 158.646 219.198C158.806 218.885 158.885 218.514 158.885 218.083C158.885 217.646 158.806 217.271 158.646 216.958C158.486 216.646 158.25 216.406 157.937 216.24C157.632 216.073 157.253 215.99 156.802 215.99H154.49V228.333H150.833V213.167ZM159.135 228.333L155.781 221.625L159.656 221.604L163.052 228.177V228.333H159.135ZM170.042 228.542C169.125 228.542 168.306 228.399 167.583 228.115C166.861 227.823 166.25 227.424 165.75 226.917C165.257 226.41 164.878 225.826 164.615 225.167C164.358 224.507 164.229 223.809 164.229 223.073V222.677C164.229 221.851 164.344 221.087 164.573 220.385C164.802 219.677 165.142 219.059 165.594 218.531C166.045 218.003 166.611 217.594 167.292 217.302C167.972 217.003 168.764 216.854 169.667 216.854C170.465 216.854 171.181 216.983 171.813 217.24C172.444 217.497 172.979 217.865 173.417 218.344C173.861 218.823 174.198 219.403 174.427 220.083C174.663 220.764 174.781 221.528 174.781 222.375V223.802H165.573V221.604H171.354V221.333C171.361 220.958 171.295 220.639 171.156 220.375C171.024 220.111 170.83 219.91 170.573 219.771C170.316 219.632 170.003 219.562 169.635 219.562C169.253 219.562 168.938 219.646 168.688 219.812C168.444 219.979 168.253 220.208 168.115 220.5C167.983 220.785 167.889 221.115 167.833 221.49C167.778 221.865 167.75 222.26 167.75 222.677V223.073C167.75 223.49 167.806 223.868 167.917 224.208C168.035 224.549 168.201 224.84 168.417 225.083C168.639 225.319 168.903 225.503 169.208 225.635C169.521 225.767 169.875 225.833 170.271 225.833C170.75 225.833 171.222 225.743 171.688 225.562C172.153 225.382 172.552 225.083 172.885 224.667L174.479 226.562C174.25 226.889 173.924 227.205 173.5 227.51C173.083 227.816 172.583 228.066 172 228.26C171.417 228.448 170.764 228.542 170.042 228.542ZM182.063 225.5V220.854C182.063 220.535 182.017 220.26 181.927 220.031C181.837 219.802 181.694 219.625 181.5 219.5C181.306 219.368 181.045 219.302 180.719 219.302C180.455 219.302 180.229 219.347 180.042 219.437C179.854 219.528 179.712 219.663 179.615 219.844C179.517 220.024 179.469 220.253 179.469 220.531H175.958C175.958 220.01 176.073 219.528 176.302 219.083C176.538 218.632 176.872 218.24 177.302 217.906C177.74 217.573 178.26 217.316 178.865 217.135C179.476 216.948 180.156 216.854 180.906 216.854C181.802 216.854 182.601 217.003 183.302 217.302C184.01 217.601 184.569 218.049 184.979 218.646C185.389 219.236 185.594 219.979 185.594 220.875V225.49C185.594 226.226 185.635 226.785 185.719 227.167C185.802 227.542 185.92 227.872 186.073 228.156V228.333H182.552C182.385 227.986 182.26 227.562 182.177 227.062C182.101 226.556 182.063 226.035 182.063 225.5ZM182.49 221.448L182.51 223.323H180.958C180.632 223.323 180.354 223.368 180.125 223.458C179.903 223.549 179.722 223.674 179.583 223.833C179.451 223.986 179.354 224.16 179.292 224.354C179.236 224.549 179.208 224.753 179.208 224.969C179.208 225.177 179.257 225.365 179.354 225.531C179.458 225.691 179.597 225.816 179.771 225.906C179.944 225.997 180.139 226.042 180.354 226.042C180.743 226.042 181.073 225.969 181.344 225.823C181.622 225.67 181.833 225.486 181.979 225.271C182.125 225.056 182.198 224.854 182.198 224.667L182.969 226.104C182.83 226.382 182.67 226.663 182.49 226.948C182.316 227.233 182.097 227.497 181.833 227.74C181.576 227.976 181.26 228.17 180.885 228.323C180.51 228.469 180.056 228.542 179.521 228.542C178.826 228.542 178.188 228.399 177.604 228.115C177.028 227.83 176.566 227.434 176.219 226.927C175.872 226.413 175.698 225.823 175.698 225.156C175.698 224.573 175.802 224.052 176.01 223.594C176.226 223.135 176.549 222.747 176.979 222.427C177.41 222.108 177.958 221.865 178.625 221.698C179.292 221.531 180.076 221.448 180.979 221.448H182.49ZM192.302 225.833C192.628 225.833 192.906 225.774 193.135 225.656C193.372 225.531 193.549 225.358 193.667 225.135C193.792 224.906 193.851 224.632 193.844 224.312H197.146C197.153 225.16 196.944 225.903 196.521 226.542C196.104 227.174 195.535 227.667 194.812 228.021C194.097 228.368 193.288 228.542 192.385 228.542C191.503 228.542 190.733 228.399 190.073 228.115C189.413 227.823 188.861 227.42 188.417 226.906C187.979 226.385 187.649 225.778 187.427 225.083C187.212 224.389 187.104 223.635 187.104 222.823V222.583C187.104 221.771 187.212 221.017 187.427 220.323C187.649 219.622 187.979 219.014 188.417 218.5C188.861 217.979 189.41 217.576 190.062 217.292C190.722 217 191.49 216.854 192.365 216.854C193.302 216.854 194.128 217.031 194.844 217.385C195.566 217.74 196.132 218.253 196.542 218.927C196.951 219.601 197.153 220.417 197.146 221.375H193.844C193.851 221.035 193.799 220.729 193.687 220.458C193.576 220.187 193.403 219.972 193.167 219.812C192.937 219.646 192.642 219.562 192.281 219.562C191.92 219.562 191.628 219.642 191.406 219.802C191.184 219.962 191.014 220.184 190.896 220.469C190.785 220.747 190.708 221.066 190.667 221.427C190.632 221.788 190.615 222.174 190.615 222.583V222.823C190.615 223.24 190.632 223.632 190.667 224C190.708 224.361 190.788 224.681 190.906 224.958C191.024 225.229 191.194 225.444 191.417 225.604C191.639 225.757 191.934 225.833 192.302 225.833ZM204.583 217.062V219.5H197.792V217.062H204.583ZM199.219 214.26H202.729V224.656C202.729 224.955 202.764 225.187 202.833 225.354C202.903 225.514 203.021 225.628 203.188 225.698C203.361 225.76 203.59 225.792 203.875 225.792C204.076 225.792 204.243 225.788 204.375 225.781C204.507 225.767 204.632 225.75 204.75 225.729V228.24C204.451 228.337 204.139 228.41 203.813 228.458C203.486 228.514 203.139 228.542 202.771 228.542C202.021 228.542 201.378 228.424 200.844 228.187C200.316 227.951 199.913 227.58 199.635 227.073C199.358 226.566 199.219 225.906 199.219 225.094V214.26ZM224.125 213.167V228.333H220.479L215.115 218.896V228.333H211.458V213.167H215.115L220.479 222.604V213.167H224.125ZM232.125 225.5V220.854C232.125 220.535 232.08 220.26 231.99 220.031C231.899 219.802 231.757 219.625 231.563 219.5C231.368 219.368 231.108 219.302 230.781 219.302C230.517 219.302 230.292 219.347 230.104 219.437C229.917 219.528 229.774 219.663 229.677 219.844C229.58 220.024 229.531 220.253 229.531 220.531H226.021C226.021 220.01 226.135 219.528 226.365 219.083C226.601 218.632 226.934 218.24 227.365 217.906C227.802 217.573 228.323 217.316 228.927 217.135C229.538 216.948 230.219 216.854 230.969 216.854C231.865 216.854 232.663 217.003 233.365 217.302C234.073 217.601 234.632 218.049 235.042 218.646C235.451 219.236 235.656 219.979 235.656 220.875V225.49C235.656 226.226 235.698 226.785 235.781 227.167C235.865 227.542 235.983 227.872 236.135 228.156V228.333H232.615C232.448 227.986 232.323 227.562 232.24 227.062C232.163 226.556 232.125 226.035 232.125 225.5ZM232.552 221.448L232.573 223.323H231.021C230.694 223.323 230.417 223.368 230.188 223.458C229.965 223.549 229.785 223.674 229.646 223.833C229.514 223.986 229.417 224.16 229.354 224.354C229.299 224.549 229.271 224.753 229.271 224.969C229.271 225.177 229.319 225.365 229.417 225.531C229.521 225.691 229.66 225.816 229.833 225.906C230.007 225.997 230.201 226.042 230.417 226.042C230.806 226.042 231.135 225.969 231.406 225.823C231.684 225.67 231.896 225.486 232.042 225.271C232.188 225.056 232.26 224.854 232.26 224.667L233.031 226.104C232.892 226.382 232.733 226.663 232.552 226.948C232.378 227.233 232.16 227.497 231.896 227.74C231.639 227.976 231.323 228.17 230.948 228.323C230.573 228.469 230.118 228.542 229.583 228.542C228.889 228.542 228.25 228.399 227.667 228.115C227.09 227.83 226.628 227.434 226.281 226.927C225.934 226.413 225.76 225.823 225.76 225.156C225.76 224.573 225.865 224.052 226.073 223.594C226.288 223.135 226.611 222.747 227.042 222.427C227.472 222.108 228.021 221.865 228.688 221.698C229.354 221.531 230.139 221.448 231.042 221.448H232.552ZM243.542 217.062V219.5H236.75V217.062H243.542ZM238.177 214.26H241.687V224.656C241.687 224.955 241.722 225.187 241.792 225.354C241.861 225.514 241.979 225.628 242.146 225.698C242.319 225.76 242.549 225.792 242.833 225.792C243.035 225.792 243.201 225.788 243.333 225.781C243.465 225.767 243.59 225.75 243.708 225.729V228.24C243.41 228.337 243.097 228.41 242.771 228.458C242.444 228.514 242.097 228.542 241.729 228.542C240.979 228.542 240.337 228.424 239.802 228.187C239.274 227.951 238.872 227.58 238.594 227.073C238.316 226.566 238.177 225.906 238.177 225.094V214.26ZM248.646 217.062V228.333H245.125V217.062H248.646ZM244.917 214.156C244.917 213.656 245.097 213.247 245.458 212.927C245.819 212.608 246.288 212.448 246.865 212.448C247.441 212.448 247.91 212.608 248.271 212.927C248.632 213.247 248.813 213.656 248.813 214.156C248.813 214.656 248.632 215.066 248.271 215.385C247.91 215.705 247.441 215.865 246.865 215.865C246.288 215.865 245.819 215.705 245.458 215.385C245.097 215.066 244.917 214.656 244.917 214.156ZM254.875 225.927L257.094 217.062H260.792L257.104 228.333H254.917L254.875 225.927ZM253.563 217.062L255.75 225.927L255.729 228.333H253.531L249.854 217.062H253.563ZM267.146 228.542C266.229 228.542 265.41 228.399 264.688 228.115C263.965 227.823 263.354 227.424 262.854 226.917C262.361 226.41 261.983 225.826 261.719 225.167C261.462 224.507 261.333 223.809 261.333 223.073V222.677C261.333 221.851 261.448 221.087 261.677 220.385C261.906 219.677 262.247 219.059 262.698 218.531C263.149 218.003 263.715 217.594 264.396 217.302C265.076 217.003 265.868 216.854 266.771 216.854C267.569 216.854 268.285 216.983 268.917 217.24C269.549 217.497 270.083 217.865 270.521 218.344C270.965 218.823 271.302 219.403 271.531 220.083C271.767 220.764 271.885 221.528 271.885 222.375V223.802H262.677V221.604H268.458V221.333C268.465 220.958 268.399 220.639 268.26 220.375C268.128 220.111 267.934 219.91 267.677 219.771C267.42 219.632 267.108 219.562 266.74 219.562C266.358 219.562 266.042 219.646 265.792 219.812C265.549 219.979 265.358 220.208 265.219 220.5C265.087 220.785 264.993 221.115 264.938 221.49C264.882 221.865 264.854 222.26 264.854 222.677V223.073C264.854 223.49 264.91 223.868 265.021 224.208C265.139 224.549 265.306 224.84 265.521 225.083C265.743 225.319 266.007 225.503 266.313 225.635C266.625 225.767 266.979 225.833 267.375 225.833C267.854 225.833 268.326 225.743 268.792 225.562C269.257 225.382 269.656 225.083 269.99 224.667L271.583 226.562C271.354 226.889 271.028 227.205 270.604 227.51C270.188 227.816 269.688 228.066 269.104 228.26C268.521 228.448 267.868 228.542 267.146 228.542Z" fill="white"/>
<rect x="339" y="196.333" width="208" height="49.3333" rx="4.66667" fill="#888888" stroke="#888888" stroke-width="4"/>
<path d="M419.073 225.521V228.333H411.406V225.521H419.073ZM412.708 213.167V228.333H409.052V213.167H412.708ZM426.302 225.5V220.854C426.302 220.535 426.257 220.26 426.167 220.031C426.076 219.802 425.934 219.625 425.74 219.5C425.545 219.368 425.285 219.302 424.958 219.302C424.694 219.302 424.469 219.347 424.281 219.437C424.094 219.528 423.951 219.663 423.854 219.844C423.757 220.024 423.708 220.253 423.708 220.531H420.198C420.198 220.01 420.312 219.528 420.542 219.083C420.778 218.632 421.111 218.24 421.542 217.906C421.979 217.573 422.5 217.316 423.104 217.135C423.715 216.948 424.396 216.854 425.146 216.854C426.042 216.854 426.84 217.003 427.542 217.302C428.25 217.601 428.809 218.049 429.219 218.646C429.628 219.236 429.833 219.979 429.833 220.875V225.49C429.833 226.226 429.875 226.785 429.958 227.167C430.042 227.542 430.16 227.872 430.312 228.156V228.333H426.792C426.625 227.986 426.5 227.562 426.417 227.062C426.34 226.556 426.302 226.035 426.302 225.5ZM426.729 221.448L426.75 223.323H425.198C424.872 223.323 424.594 223.368 424.365 223.458C424.142 223.549 423.962 223.674 423.823 223.833C423.691 223.986 423.594 224.16 423.531 224.354C423.476 224.549 423.448 224.753 423.448 224.969C423.448 225.177 423.497 225.365 423.594 225.531C423.698 225.691 423.837 225.816 424.01 225.906C424.184 225.997 424.378 226.042 424.594 226.042C424.983 226.042 425.312 225.969 425.583 225.823C425.861 225.67 426.073 225.486 426.219 225.271C426.365 225.056 426.437 224.854 426.437 224.667L427.208 226.104C427.069 226.382 426.91 226.663 426.729 226.948C426.556 227.233 426.337 227.497 426.073 227.74C425.816 227.976 425.5 228.17 425.125 228.323C424.75 228.469 424.295 228.542 423.76 228.542C423.066 228.542 422.427 228.399 421.844 228.115C421.267 227.83 420.806 227.434 420.458 226.927C420.111 226.413 419.937 225.823 419.937 225.156C419.937 224.573 420.042 224.052 420.25 223.594C420.465 223.135 420.788 222.747 421.219 222.427C421.649 222.108 422.198 221.865 422.865 221.698C423.531 221.531 424.316 221.448 425.219 221.448H426.729ZM435.323 219.854V228.333H431.812V217.062H435.094L435.323 219.854ZM438.656 216.979L438.594 220.24C438.455 220.226 438.267 220.208 438.031 220.187C437.795 220.167 437.597 220.156 437.437 220.156C437.028 220.156 436.674 220.205 436.375 220.302C436.083 220.392 435.84 220.531 435.646 220.719C435.458 220.899 435.319 221.128 435.229 221.406C435.146 221.684 435.108 222.007 435.115 222.375L434.479 221.958C434.479 221.201 434.552 220.514 434.698 219.896C434.851 219.271 435.066 218.733 435.344 218.281C435.622 217.823 435.958 217.472 436.354 217.229C436.75 216.979 437.194 216.854 437.687 216.854C437.861 216.854 438.031 216.865 438.198 216.885C438.372 216.906 438.524 216.937 438.656 216.979ZM445.406 225.5V220.854C445.406 220.535 445.361 220.26 445.271 220.031C445.181 219.802 445.038 219.625 444.844 219.5C444.649 219.368 444.389 219.302 444.063 219.302C443.799 219.302 443.573 219.347 443.385 219.437C443.198 219.528 443.056 219.663 442.958 219.844C442.861 220.024 442.813 220.253 442.813 220.531H439.302C439.302 220.01 439.417 219.528 439.646 219.083C439.882 218.632 440.215 218.24 440.646 217.906C441.083 217.573 441.604 217.316 442.208 217.135C442.819 216.948 443.5 216.854 444.25 216.854C445.146 216.854 445.944 217.003 446.646 217.302C447.354 217.601 447.913 218.049 448.323 218.646C448.733 219.236 448.938 219.979 448.938 220.875V225.49C448.938 226.226 448.979 226.785 449.063 227.167C449.146 227.542 449.264 227.872 449.417 228.156V228.333H445.896C445.729 227.986 445.604 227.562 445.521 227.062C445.444 226.556 445.406 226.035 445.406 225.5ZM445.833 221.448L445.854 223.323H444.302C443.976 223.323 443.698 223.368 443.469 223.458C443.247 223.549 443.066 223.674 442.927 223.833C442.795 223.986 442.698 224.16 442.635 224.354C442.58 224.549 442.552 224.753 442.552 224.969C442.552 225.177 442.601 225.365 442.698 225.531C442.802 225.691 442.941 225.816 443.115 225.906C443.288 225.997 443.483 226.042 443.698 226.042C444.087 226.042 444.417 225.969 444.688 225.823C444.965 225.67 445.177 225.486 445.323 225.271C445.469 225.056 445.542 224.854 445.542 224.667L446.313 226.104C446.174 226.382 446.014 226.663 445.833 226.948C445.66 227.233 445.441 227.497 445.177 227.74C444.92 227.976 444.604 228.17 444.229 228.323C443.854 228.469 443.399 228.542 442.865 228.542C442.17 228.542 441.531 228.399 440.948 228.115C440.372 227.83 439.91 227.434 439.563 226.927C439.215 226.413 439.042 225.823 439.042 225.156C439.042 224.573 439.146 224.052 439.354 223.594C439.569 223.135 439.892 222.747 440.323 222.427C440.753 222.108 441.302 221.865 441.969 221.698C442.635 221.531 443.42 221.448 444.323 221.448H445.833ZM454.781 225.927L457 217.062H460.698L457.01 228.333H454.823L454.781 225.927ZM453.469 217.062L455.656 225.927L455.635 228.333H453.437L449.76 217.062H453.469ZM467.052 228.542C466.135 228.542 465.316 228.399 464.594 228.115C463.872 227.823 463.26 227.424 462.76 226.917C462.267 226.41 461.889 225.826 461.625 225.167C461.368 224.507 461.24 223.809 461.24 223.073V222.677C461.24 221.851 461.354 221.087 461.583 220.385C461.812 219.677 462.153 219.059 462.604 218.531C463.056 218.003 463.622 217.594 464.302 217.302C464.983 217.003 465.774 216.854 466.677 216.854C467.476 216.854 468.191 216.983 468.823 217.24C469.455 217.497 469.99 217.865 470.427 218.344C470.872 218.823 471.208 219.403 471.437 220.083C471.674 220.764 471.792 221.528 471.792 222.375V223.802H462.583V221.604H468.365V221.333C468.372 220.958 468.306 220.639 468.167 220.375C468.035 220.111 467.84 219.91 467.583 219.771C467.326 219.632 467.014 219.562 466.646 219.562C466.264 219.562 465.948 219.646 465.698 219.812C465.455 219.979 465.264 220.208 465.125 220.5C464.993 220.785 464.899 221.115 464.844 221.49C464.788 221.865 464.76 222.26 464.76 222.677V223.073C464.76 223.49 464.816 223.868 464.927 224.208C465.045 224.549 465.212 224.84 465.427 225.083C465.649 225.319 465.913 225.503 466.219 225.635C466.531 225.767 466.885 225.833 467.281 225.833C467.76 225.833 468.233 225.743 468.698 225.562C469.163 225.382 469.562 225.083 469.896 224.667L471.49 226.562C471.26 226.889 470.934 227.205 470.51 227.51C470.094 227.816 469.594 228.066 469.01 228.26C468.427 228.448 467.774 228.542 467.052 228.542ZM476.927 212.333V228.333H473.406V212.333H476.927Z" fill="white"/>
<rect x="571" y="196.333" width="208" height="49.3333" rx="4.66667" fill="#888888" stroke="#888888" stroke-width="4"/>
<path d="M643.26 213.167H646.24L649.625 223.719L653.01 213.167H655.99L650.833 228.333H648.417L643.26 213.167ZM641.448 213.167H644.531L645.104 224.792V228.333H641.448V213.167ZM654.719 213.167H657.812V228.333H654.146V224.792L654.719 213.167ZM663.448 227.01L666.365 217.062H670.135L665.604 230.01C665.507 230.295 665.378 230.601 665.219 230.927C665.059 231.26 664.84 231.576 664.563 231.875C664.285 232.174 663.927 232.417 663.49 232.604C663.059 232.792 662.524 232.885 661.885 232.885C661.545 232.885 661.295 232.868 661.135 232.833C660.983 232.806 660.747 232.753 660.427 232.677V230.167C660.517 230.167 660.594 230.167 660.656 230.167C660.726 230.167 660.802 230.167 660.885 230.167C661.26 230.167 661.559 230.128 661.781 230.052C662.01 229.976 662.184 229.865 662.302 229.719C662.427 229.573 662.524 229.396 662.594 229.187L663.448 227.01ZM662.708 217.062L664.927 224.948L665.313 228.667H662.958L658.948 217.062H662.708ZM679.031 224.302C679.031 224.066 678.997 223.854 678.927 223.667C678.858 223.472 678.729 223.292 678.542 223.125C678.354 222.958 678.083 222.792 677.729 222.625C677.382 222.451 676.924 222.271 676.354 222.083C675.688 221.861 675.045 221.611 674.427 221.333C673.809 221.049 673.257 220.719 672.771 220.344C672.285 219.962 671.899 219.517 671.615 219.01C671.33 218.497 671.188 217.899 671.188 217.219C671.188 216.566 671.333 215.979 671.625 215.458C671.917 214.931 672.323 214.483 672.844 214.115C673.372 213.74 673.99 213.455 674.698 213.26C675.406 213.059 676.181 212.958 677.021 212.958C678.132 212.958 679.111 213.153 679.958 213.542C680.813 213.924 681.479 214.469 681.958 215.177C682.444 215.878 682.688 216.708 682.688 217.667H679.052C679.052 217.285 678.972 216.948 678.813 216.656C678.66 216.365 678.427 216.135 678.115 215.969C677.802 215.802 677.41 215.719 676.938 215.719C676.479 215.719 676.094 215.788 675.781 215.927C675.469 216.066 675.233 216.253 675.073 216.49C674.913 216.719 674.833 216.972 674.833 217.25C674.833 217.479 674.896 217.687 675.021 217.875C675.153 218.056 675.337 218.226 675.573 218.385C675.816 218.545 676.108 218.698 676.448 218.844C676.795 218.99 677.184 219.132 677.615 219.271C678.42 219.528 679.135 219.816 679.76 220.135C680.392 220.448 680.924 220.806 681.354 221.208C681.792 221.604 682.122 222.056 682.344 222.562C682.573 223.069 682.688 223.642 682.688 224.281C682.688 224.962 682.556 225.566 682.292 226.094C682.028 226.622 681.649 227.069 681.156 227.437C680.663 227.799 680.073 228.073 679.385 228.26C678.698 228.448 677.931 228.542 677.083 228.542C676.306 228.542 675.538 228.444 674.781 228.25C674.031 228.049 673.351 227.743 672.74 227.333C672.128 226.917 671.639 226.385 671.271 225.74C670.91 225.087 670.729 224.312 670.729 223.417H674.396C674.396 223.861 674.455 224.236 674.573 224.542C674.691 224.847 674.865 225.094 675.094 225.281C675.323 225.462 675.604 225.594 675.938 225.677C676.271 225.753 676.653 225.792 677.083 225.792C677.549 225.792 677.924 225.726 678.208 225.594C678.493 225.455 678.701 225.274 678.833 225.052C678.965 224.823 679.031 224.573 679.031 224.302ZM693.031 225.833L697.26 229.187L694.99 231.104L690.833 227.75L693.031 225.833ZM697.437 220.448V221.062C697.437 222.222 697.274 223.264 696.948 224.187C696.628 225.104 696.17 225.889 695.573 226.542C694.983 227.187 694.285 227.684 693.479 228.031C692.674 228.372 691.785 228.542 690.812 228.542C689.833 228.542 688.937 228.372 688.125 228.031C687.319 227.684 686.618 227.187 686.021 226.542C685.431 225.889 684.972 225.104 684.646 224.187C684.326 223.264 684.167 222.222 684.167 221.062V220.448C684.167 219.288 684.326 218.247 684.646 217.323C684.972 216.399 685.427 215.615 686.01 214.969C686.601 214.316 687.299 213.819 688.104 213.479C688.917 213.132 689.812 212.958 690.792 212.958C691.764 212.958 692.653 213.132 693.458 213.479C694.271 213.819 694.972 214.316 695.562 214.969C696.16 215.615 696.622 216.399 696.948 217.323C697.274 218.247 697.437 219.288 697.437 220.448ZM693.719 221.062V220.427C693.719 219.677 693.653 219.017 693.521 218.448C693.396 217.872 693.208 217.389 692.958 217C692.708 216.611 692.399 216.319 692.031 216.125C691.67 215.924 691.257 215.823 690.792 215.823C690.306 215.823 689.882 215.924 689.521 216.125C689.16 216.319 688.858 216.611 688.615 217C688.372 217.389 688.187 217.872 688.062 218.448C687.944 219.017 687.885 219.677 687.885 220.427V221.062C687.885 221.806 687.944 222.465 688.062 223.042C688.187 223.611 688.372 224.094 688.615 224.49C688.865 224.885 689.17 225.184 689.531 225.385C689.899 225.587 690.326 225.687 690.812 225.687C691.278 225.687 691.691 225.587 692.052 225.385C692.413 225.184 692.715 224.885 692.958 224.49C693.208 224.094 693.396 223.611 693.521 223.042C693.653 222.465 693.719 221.806 693.719 221.062ZM709.323 225.521V228.333H701.656V225.521H709.323ZM702.958 213.167V228.333H699.302V213.167H702.958Z" fill="white"/>
</svg>
