<svg width="1363" height="167" viewBox="0 0 1363 167" fill="none" xmlns="http://www.w3.org/2000/svg">
<rect width="1363" height="167" rx="15" fill="#F0F0F0"/>
<path d="M0 15C0 6.71573 6.71573 0 15 0H37V167H15C6.71573 167 0 160.284 0 152V15Z" fill="#424241"/>
<path d="M101.734 54.127H96.3708V51.9622H101.734C102.773 51.9622 103.614 51.7968 104.258 51.4658C104.901 51.1349 105.37 50.6753 105.664 50.087C105.967 49.4987 106.119 48.8277 106.119 48.074C106.119 47.3845 105.967 46.7365 105.664 46.1298C105.37 45.5231 104.901 45.036 104.258 44.6683C103.614 44.2914 102.773 44.103 101.734 44.103H96.9913V62H94.3302V41.9244H101.734C103.251 41.9244 104.533 42.1864 105.581 42.7104C106.629 43.2343 107.424 43.9605 107.967 44.8889C108.509 45.8081 108.78 46.8606 108.78 48.0464C108.78 49.3333 108.509 50.4317 107.967 51.3418C107.424 52.2518 106.629 52.9458 105.581 53.4238C104.533 53.8926 103.251 54.127 101.734 54.127ZM122.844 56.926C122.844 56.4572 122.771 56.0435 122.624 55.685C122.486 55.3173 122.237 54.9864 121.879 54.6923C121.53 54.3981 121.042 54.1178 120.417 53.8512C119.802 53.5846 119.02 53.3135 118.073 53.0377C117.081 52.7435 116.184 52.4172 115.385 52.0587C114.585 51.6911 113.9 51.2728 113.33 50.804C112.76 50.3352 112.324 49.7975 112.02 49.1908C111.717 48.5841 111.565 47.8901 111.565 47.1088C111.565 46.3275 111.726 45.6059 112.048 44.944C112.37 44.2822 112.829 43.7077 113.427 43.2205C114.033 42.7242 114.755 42.3381 115.592 42.0623C116.428 41.7866 117.361 41.6487 118.391 41.6487C119.898 41.6487 121.176 41.9382 122.224 42.5173C123.281 43.0872 124.085 43.8364 124.637 44.7648C125.188 45.684 125.464 46.6676 125.464 47.7155H122.817C122.817 46.9617 122.656 46.2953 122.334 45.7162C122.012 45.1279 121.525 44.6683 120.872 44.3374C120.22 43.9973 119.392 43.8272 118.391 43.8272C117.444 43.8272 116.662 43.9697 116.047 44.2546C115.431 44.5396 114.971 44.9257 114.668 45.4128C114.374 45.9 114.227 46.4561 114.227 47.0812C114.227 47.504 114.314 47.8901 114.488 48.2394C114.672 48.5795 114.953 48.8967 115.33 49.1908C115.716 49.4849 116.203 49.7561 116.791 50.0043C117.389 50.2525 118.101 50.4915 118.928 50.7213C120.068 51.043 121.052 51.4015 121.879 51.7968C122.706 52.192 123.386 52.6378 123.92 53.1342C124.462 53.6214 124.862 54.1775 125.119 54.8026C125.386 55.4185 125.519 56.1171 125.519 56.8984C125.519 57.7165 125.354 58.4564 125.023 59.1183C124.692 59.7801 124.218 60.3454 123.602 60.8142C122.987 61.283 122.247 61.6461 121.383 61.9035C120.528 62.1517 119.572 62.2758 118.515 62.2758C117.586 62.2758 116.672 62.1471 115.771 61.8897C114.879 61.6323 114.066 61.2462 113.33 60.7315C112.604 60.2167 112.02 59.5825 111.579 58.8287C111.147 58.0658 110.931 57.1833 110.931 56.1814H113.578C113.578 56.8708 113.712 57.4637 113.978 57.9601C114.245 58.4473 114.608 58.8517 115.068 59.1734C115.536 59.4952 116.065 59.7341 116.653 59.8904C117.251 60.0375 117.871 60.111 118.515 60.111C119.443 60.111 120.229 59.9823 120.872 59.725C121.516 59.4676 122.003 59.0999 122.334 58.6219C122.674 58.1439 122.844 57.5786 122.844 56.926ZM129.835 41.9244L135.047 52.0036L140.272 41.9244H143.292L136.37 54.4992V62H133.709V54.4992L126.788 41.9244H129.835ZM158.045 59.8353V62H148.008V59.8353H158.045ZM148.531 41.9244V62H145.87V41.9244H148.531ZM173.847 59.8353V62H163.216V59.8353H173.847ZM163.754 41.9244V62H161.092V41.9244H163.754ZM172.44 50.5558V52.7206H163.216V50.5558H172.44ZM173.709 41.9244V44.103H163.216V41.9244H173.709ZM184.298 52.6103H179.21L179.183 50.4731H183.802C184.565 50.4731 185.231 50.3444 185.801 50.087C186.371 49.8297 186.812 49.462 187.125 48.984C187.446 48.4968 187.607 47.9177 187.607 47.2467C187.607 46.5113 187.465 45.9138 187.18 45.4542C186.904 44.9854 186.476 44.6453 185.897 44.4339C185.327 44.2133 184.601 44.103 183.719 44.103H179.803V62H177.142V41.9244H183.719C184.748 41.9244 185.668 42.0301 186.476 42.2416C187.285 42.4438 187.97 42.7655 188.531 43.2067C189.101 43.6388 189.533 44.1903 189.827 44.8613C190.121 45.5323 190.268 46.3366 190.268 47.2742C190.268 48.1015 190.057 48.8507 189.634 49.5217C189.211 50.1835 188.623 50.7259 187.869 51.1487C187.125 51.5716 186.251 51.8427 185.249 51.9622L184.298 52.6103ZM184.174 62H178.162L179.665 59.8353H184.174C185.02 59.8353 185.737 59.6882 186.325 59.394C186.922 59.0999 187.377 58.6862 187.69 58.1531C188.002 57.6108 188.159 56.9719 188.159 56.2365C188.159 55.492 188.025 54.8485 187.759 54.3062C187.492 53.7639 187.074 53.3456 186.504 53.0515C185.934 52.7573 185.199 52.6103 184.298 52.6103H180.506L180.534 50.4731H185.718L186.283 51.2452C187.249 51.328 188.067 51.6037 188.738 52.0725C189.409 52.5321 189.919 53.1204 190.268 53.8374C190.627 54.5544 190.806 55.3449 190.806 56.209C190.806 57.4591 190.53 58.5162 189.979 59.3802C189.436 60.2351 188.669 60.8878 187.676 61.3382C186.683 61.7794 185.516 62 184.174 62Z" fill="#424241"/>
<path d="M115.994 98.708V104.641H99.5806V98.708H115.994ZM102.151 86.0078V118H94.439V86.0078H102.151ZM121.18 86.0078V118H113.489V86.0078H121.18ZM124.805 106.354V105.893C124.805 104.15 125.054 102.546 125.552 101.081C126.05 99.6016 126.783 98.3198 127.75 97.2358C128.716 96.1519 129.91 95.3096 131.331 94.709C132.752 94.0938 134.393 93.7861 136.253 93.7861C138.128 93.7861 139.776 94.0938 141.197 94.709C142.632 95.3096 143.833 96.1519 144.8 97.2358C145.767 98.3198 146.5 99.6016 146.998 101.081C147.496 102.546 147.745 104.15 147.745 105.893V106.354C147.745 108.083 147.496 109.687 146.998 111.167C146.5 112.631 145.767 113.913 144.8 115.012C143.833 116.096 142.64 116.938 141.219 117.539C139.798 118.139 138.157 118.439 136.297 118.439C134.437 118.439 132.789 118.139 131.353 117.539C129.917 116.938 128.716 116.096 127.75 115.012C126.783 113.913 126.05 112.631 125.552 111.167C125.054 109.687 124.805 108.083 124.805 106.354ZM132.21 105.893V106.354C132.21 107.248 132.276 108.083 132.408 108.859C132.54 109.636 132.759 110.317 133.067 110.903C133.375 111.474 133.792 111.921 134.319 112.243C134.847 112.565 135.506 112.727 136.297 112.727C137.073 112.727 137.718 112.565 138.23 112.243C138.758 111.921 139.175 111.474 139.483 110.903C139.791 110.317 140.01 109.636 140.142 108.859C140.274 108.083 140.34 107.248 140.34 106.354V105.893C140.34 105.029 140.274 104.216 140.142 103.454C140.01 102.678 139.791 101.997 139.483 101.411C139.175 100.81 138.758 100.341 138.23 100.004C137.703 99.6675 137.044 99.499 136.253 99.499C135.477 99.499 134.825 99.6675 134.297 100.004C133.785 100.341 133.375 100.81 133.067 101.411C132.759 101.997 132.54 102.678 132.408 103.454C132.276 104.216 132.21 105.029 132.21 105.893ZM158.27 110.925L162.664 94.2256H167.3L165.652 102.597L161.302 118H157.588L158.27 110.925ZM156.534 94.2256L159.258 110.793L159.566 118H155.062L149.437 94.2256H156.534ZM171.211 110.441L173.958 94.2256H181.055L175.474 118H170.97L171.211 110.441ZM167.828 94.2256L172.266 110.881L172.947 118H169.19L164.927 102.641L163.345 94.2256H167.828ZM209.466 86.0078V118H201.753V86.0078H209.466ZM219.09 86.0078V91.9624H192.349V86.0078H219.09ZM216.475 106.354V105.893C216.475 104.15 216.724 102.546 217.222 101.081C217.72 99.6016 218.453 98.3198 219.419 97.2358C220.386 96.1519 221.58 95.3096 223.001 94.709C224.422 94.0938 226.062 93.7861 227.923 93.7861C229.798 93.7861 231.446 94.0938 232.867 94.709C234.302 95.3096 235.503 96.1519 236.47 97.2358C237.437 98.3198 238.169 99.6016 238.667 101.081C239.166 102.546 239.415 104.15 239.415 105.893V106.354C239.415 108.083 239.166 109.687 238.667 111.167C238.169 112.631 237.437 113.913 236.47 115.012C235.503 116.096 234.31 116.938 232.889 117.539C231.468 118.139 229.827 118.439 227.967 118.439C226.106 118.439 224.458 118.139 223.023 117.539C221.587 116.938 220.386 116.096 219.419 115.012C218.453 113.913 217.72 112.631 217.222 111.167C216.724 109.687 216.475 108.083 216.475 106.354ZM223.88 105.893V106.354C223.88 107.248 223.946 108.083 224.078 108.859C224.209 109.636 224.429 110.317 224.737 110.903C225.044 111.474 225.462 111.921 225.989 112.243C226.517 112.565 227.176 112.727 227.967 112.727C228.743 112.727 229.388 112.565 229.9 112.243C230.428 111.921 230.845 111.474 231.153 110.903C231.46 110.317 231.68 109.636 231.812 108.859C231.944 108.083 232.01 107.248 232.01 106.354V105.893C232.01 105.029 231.944 104.216 231.812 103.454C231.68 102.678 231.46 101.997 231.153 101.411C230.845 100.81 230.428 100.341 229.9 100.004C229.373 99.6675 228.714 99.499 227.923 99.499C227.146 99.499 226.495 99.6675 225.967 100.004C225.455 100.341 225.044 100.81 224.737 101.411C224.429 101.997 224.209 102.678 224.078 103.454C223.946 104.216 223.88 105.029 223.88 105.893ZM254.268 86.0078H266.858C269.319 86.0078 271.458 86.374 273.274 87.1064C275.091 87.8389 276.49 88.9229 277.471 90.3584C278.467 91.7939 278.965 93.5664 278.965 95.6758C278.965 97.5068 278.68 99.0376 278.108 100.268C277.537 101.499 276.739 102.517 275.713 103.322C274.703 104.113 273.523 104.765 272.176 105.278L269.649 106.706H259.08L259.036 100.751H266.858C267.84 100.751 268.653 100.576 269.297 100.224C269.942 99.8726 270.425 99.3745 270.748 98.73C271.084 98.0708 271.253 97.2871 271.253 96.3789C271.253 95.4561 271.084 94.665 270.748 94.0059C270.411 93.3467 269.913 92.8413 269.253 92.4897C268.609 92.1382 267.811 91.9624 266.858 91.9624H261.98V118H254.268V86.0078ZM271.78 118L264.705 103.85L272.879 103.806L280.042 117.67V118H271.78ZM297.159 112.221V94.2256H304.585V118H297.642L297.159 112.221ZM297.862 107.387L299.795 107.343C299.795 108.94 299.605 110.419 299.224 111.782C298.843 113.129 298.279 114.301 297.532 115.297C296.8 116.293 295.892 117.07 294.808 117.626C293.738 118.168 292.5 118.439 291.094 118.439C289.922 118.439 288.846 118.278 287.864 117.956C286.897 117.619 286.062 117.099 285.359 116.396C284.656 115.678 284.107 114.763 283.711 113.649C283.331 112.521 283.14 111.174 283.14 109.606V94.2256H290.545V109.65C290.545 110.178 290.611 110.632 290.743 111.013C290.875 111.394 291.065 111.716 291.314 111.979C291.563 112.229 291.871 112.419 292.237 112.551C292.618 112.668 293.05 112.727 293.533 112.727C294.646 112.727 295.518 112.492 296.148 112.023C296.778 111.555 297.217 110.917 297.466 110.112C297.73 109.306 297.862 108.398 297.862 107.387ZM315.945 99.3013V118H308.541V94.2256H315.484L315.945 99.3013ZM315.066 105.3L313.331 105.344C313.331 103.527 313.55 101.909 313.99 100.488C314.429 99.0522 315.052 97.8364 315.857 96.8403C316.663 95.8442 317.623 95.0898 318.736 94.5771C319.864 94.0498 321.116 93.7861 322.493 93.7861C323.592 93.7861 324.595 93.9473 325.503 94.2695C326.426 94.5918 327.217 95.1118 327.876 95.8296C328.55 96.5474 329.063 97.4995 329.415 98.686C329.781 99.8579 329.964 101.308 329.964 103.037V118H322.515V103.015C322.515 102.062 322.383 101.337 322.12 100.839C321.856 100.327 321.475 99.9751 320.977 99.7847C320.479 99.5942 319.871 99.499 319.153 99.499C318.392 99.499 317.747 99.6455 317.22 99.9385C316.692 100.231 316.268 100.642 315.945 101.169C315.638 101.682 315.411 102.29 315.264 102.993C315.132 103.696 315.066 104.465 315.066 105.3ZM345.85 107.871H339.544C339.544 106.582 339.632 105.446 339.808 104.465C339.998 103.469 340.32 102.575 340.774 101.784C341.229 100.993 341.844 100.261 342.62 99.5869C343.309 99.0156 343.902 98.4663 344.4 97.939C344.898 97.4116 345.279 96.877 345.542 96.335C345.806 95.793 345.938 95.2144 345.938 94.5991C345.938 93.8374 345.828 93.2148 345.608 92.7314C345.403 92.248 345.088 91.8892 344.664 91.6548C344.253 91.4058 343.733 91.2812 343.104 91.2812C342.591 91.2812 342.107 91.4058 341.653 91.6548C341.214 91.9038 340.855 92.292 340.577 92.8193C340.298 93.332 340.145 94.0132 340.115 94.8628H332.667C332.71 92.6802 333.194 90.9077 334.117 89.5454C335.054 88.1685 336.299 87.165 337.852 86.5352C339.419 85.8906 341.17 85.5684 343.104 85.5684C345.242 85.5684 347.081 85.8979 348.619 86.5571C350.157 87.2163 351.336 88.1978 352.156 89.5015C352.977 90.7905 353.387 92.3799 353.387 94.2695C353.387 95.5293 353.145 96.6279 352.662 97.5654C352.193 98.4883 351.556 99.3525 350.75 100.158C349.959 100.949 349.073 101.799 348.091 102.707C347.242 103.454 346.663 104.216 346.355 104.992C346.048 105.754 345.879 106.713 345.85 107.871ZM338.643 114.55C338.643 113.496 339.024 112.617 339.786 111.914C340.547 111.196 341.536 110.837 342.752 110.837C343.968 110.837 344.957 111.196 345.718 111.914C346.48 112.617 346.861 113.496 346.861 114.55C346.861 115.605 346.48 116.491 345.718 117.209C344.957 117.912 343.968 118.264 342.752 118.264C341.536 118.264 340.547 117.912 339.786 117.209C339.024 116.491 338.643 115.605 338.643 114.55Z" fill="#424241"/>
<path d="M1363 15C1363 6.71573 1356.28 0 1348 0H1134V167H1348C1356.28 167 1363 160.284 1363 152V15Z" fill="#5DB075"/>
<path d="M1260.77 81.3079C1263.96 81.3079 1267.09 82.2553 1269.74 84.0303C1272.4 85.8053 1274.47 88.3282 1275.69 91.2799C1276.92 94.2316 1277.24 97.4796 1276.61 100.613C1275.99 103.747 1274.45 106.625 1272.19 108.884C1269.93 111.143 1267.05 112.682 1263.92 113.305C1260.79 113.928 1257.54 113.608 1254.59 112.386C1251.64 111.163 1249.11 109.093 1247.34 106.436C1245.56 103.78 1244.62 100.657 1244.62 97.4617C1244.62 93.1774 1246.32 89.0686 1249.35 86.0392C1252.38 83.0098 1256.48 81.3079 1260.77 81.3079ZM1260.77 75.9233C1256.51 75.9233 1252.35 77.1865 1248.8 79.5532C1245.26 81.9198 1242.5 85.2837 1240.87 89.2193C1239.24 93.1549 1238.81 97.4856 1239.64 101.664C1240.48 105.842 1242.53 109.679 1245.54 112.692C1248.55 115.704 1252.39 117.755 1256.57 118.586C1260.75 119.417 1265.08 118.991 1269.01 117.361C1272.95 115.73 1276.31 112.97 1278.68 109.428C1281.04 105.886 1282.31 101.722 1282.31 97.4617C1282.31 91.7493 1280.04 86.271 1276 82.2317C1271.96 78.1925 1266.48 75.9233 1260.77 75.9233Z" fill="white"/>
<path d="M1274.23 49H1220.38C1218.96 49 1217.59 49.5673 1216.58 50.5771C1215.57 51.5869 1215 52.9565 1215 54.3846V108.231C1215 109.659 1215.57 111.028 1216.58 112.038C1217.59 113.048 1218.96 113.615 1220.38 113.615H1231.15V108.231H1220.38V70.5384H1279.62V54.3846C1279.62 52.9565 1279.05 51.5869 1278.04 50.5771C1277.03 49.5673 1275.66 49 1274.23 49ZM1220.38 65.1538V54.3846H1274.23V65.1538H1220.38Z" fill="white"/>
<path d="M1255.38 89.3849V105.539L1268.85 97.4618L1255.38 89.3849Z" fill="white"/>
</svg>
