<svg width="175" height="133" viewBox="0 0 175 133" fill="none" xmlns="http://www.w3.org/2000/svg">
<path d="M175 0H0V133H175V0Z" fill="#5DB075"/>
<path d="M84.9672 26.6408L86.8528 47.6701C86.8467 47.6712 86.8406 47.6729 86.8344 47.674C86.832 47.6744 86.8296 47.675 86.8274 47.6756C86.8 47.6805 86.7724 47.6839 86.7451 47.689C86.7428 47.6894 86.7404 47.6901 86.7383 47.6906C86.7091 47.6961 86.6803 47.7023 86.6513 47.7083C86.6478 47.7088 86.6452 47.71 86.6421 47.7105C86.496 47.7413 86.3517 47.7794 86.2105 47.8258C86.2033 47.8285 86.1961 47.8306 86.189 47.8328C86.1812 47.8355 86.1736 47.8377 86.1659 47.8406L76.384 28.7713L71.9897 31.0849L85.0604 48.4275C85.0078 48.4676 84.9561 48.509 84.9057 48.5519C84.9016 48.5557 84.8976 48.559 84.8934 48.5625C84.877 48.5767 84.8611 48.5912 84.8449 48.6056C84.8385 48.6113 84.832 48.6169 84.8257 48.6226C84.8097 48.637 84.7937 48.6517 84.778 48.6665C84.7013 48.7381 84.6277 48.8125 84.5587 48.8892L65.7135 36.8695L63.1663 40.8928L83.924 49.9067C83.9223 49.9121 83.9205 49.9154 83.9187 49.9203C83.9127 49.9355 83.9068 49.9502 83.901 49.9654C83.8987 49.9719 83.8963 49.9779 83.8942 49.9845C83.8882 50.0002 83.882 50.0155 83.8765 50.0312C83.8717 50.0438 83.8677 50.0562 83.8634 50.0688C83.8571 50.0872 83.8509 50.1058 83.8449 50.1239C83.842 50.1321 83.8396 50.1397 83.8372 50.1479C83.8319 50.1653 83.8262 50.1821 83.8211 50.1995C83.8181 50.2098 83.8158 50.2197 83.8126 50.23C83.8085 50.2425 83.8053 50.2555 83.8019 50.268C83.7995 50.2762 83.7977 50.2838 83.7957 50.292C83.7755 50.3679 83.7579 50.4438 83.7434 50.5203L60.8716 48.7887L60.8893 53.4427L83.7403 51.6948C83.7802 51.9135 83.8425 52.1282 83.9265 52.3362L63.1788 61.326L65.696 65.3655L84.565 53.3515C84.7148 53.5171 84.8829 53.6716 85.0682 53.8118L71.9898 71.1339L76.3672 73.475L86.1744 54.3959C86.3972 54.4715 86.6243 54.5265 86.853 54.562L84.9674 75.59L90.0318 75.5736L88.1293 54.5598C88.1449 54.5598 88.1606 54.5544 88.1762 54.5522C88.1952 54.5468 88.2142 54.5457 88.2331 54.5425C88.2529 54.537 88.2726 54.5348 88.2924 54.531C88.4699 54.4968 88.6427 54.4517 88.8101 54.3953L98.6181 73.4752L102.995 71.134L89.9164 53.8119C90.0989 53.6737 90.2671 53.5198 90.4187 53.353L109.288 65.3671L111.805 61.3275L91.0619 52.3391C91.1459 52.1327 91.2092 51.9169 91.2496 51.6942L114.111 53.4428L114.128 48.7888L91.2465 50.5212C91.2066 50.3078 91.1457 50.1007 91.0657 49.9024L111.817 40.8914L109.27 36.8681L90.4264 48.8871C90.4094 48.8683 90.393 48.8497 90.3757 48.8312C90.3155 48.7672 90.2522 48.7058 90.1872 48.646C90.1866 48.6455 90.186 48.6444 90.1854 48.6438C90.1652 48.6253 90.1445 48.6068 90.1239 48.5886C90.1227 48.5876 90.1209 48.5859 90.1197 48.5848C90.099 48.5667 90.0777 48.5488 90.0566 48.5311C90.0554 48.53 90.0543 48.5284 90.0525 48.5273C90.0314 48.5096 90.0102 48.4929 89.9886 48.4757C89.9874 48.4746 89.9863 48.473 89.9845 48.4719C89.9647 48.456 89.9439 48.4406 89.9237 48.4252L102.994 31.084L98.5993 28.7705L88.819 47.8369C88.5976 47.7614 88.3668 47.7052 88.1281 47.6686L90.0306 26.657L84.9662 26.6407L84.9672 26.6408Z" fill="white"/>
<path d="M39.0156 84.8748C42.1978 84.8748 44.6389 85.4358 46.3389 86.5576C48.0608 87.6594 48.9217 89.312 48.9217 91.5156C48.9217 92.7175 48.682 93.7492 48.2025 94.6106C47.7448 95.452 47.0691 96.1431 46.1755 96.684C45.3036 97.2048 44.2357 97.5854 42.9715 97.8258C41.7074 98.0662 40.2797 98.1864 38.6887 98.1864H36.1713V105.909H33V85.3857C33.8936 85.1853 34.8853 85.0551 35.9751 84.995C37.0867 84.9149 38.1002 84.8748 39.0156 84.8748ZM39.2771 87.429C37.9258 87.429 36.8905 87.459 36.1713 87.5191V95.6924H38.5579C39.6477 95.6924 40.6285 95.6323 41.5003 95.5121C42.3721 95.3718 43.1023 95.1515 43.6908 94.851C44.301 94.5305 44.7696 94.0998 45.0966 93.5589C45.4235 93.018 45.587 92.3269 45.587 91.4855C45.587 90.6842 45.4126 90.0232 45.0639 89.5023C44.737 88.9815 44.2792 88.5708 43.6908 88.2703C43.1241 87.9498 42.4593 87.7295 41.6965 87.6093C40.9336 87.4891 40.1272 87.429 39.2771 87.429ZM58.1413 103.836C61.4542 103.836 63.1107 102.794 63.1107 100.71C63.1107 100.069 62.9581 99.5286 62.653 99.0878C62.3696 98.6271 61.9773 98.2365 61.476 97.916C60.9747 97.5754 60.3971 97.2849 59.7433 97.0445C59.1112 96.8042 58.4355 96.5638 57.7163 96.3234C56.888 96.063 56.1034 95.7725 55.3623 95.452C54.6213 95.1114 53.9783 94.7208 53.4334 94.2801C52.8885 93.8193 52.4526 93.2784 52.1257 92.6574C51.8205 92.0364 51.668 91.2852 51.668 90.4038C51.668 88.5808 52.3436 87.1585 53.695 86.1369C55.0463 85.1152 56.9098 84.6044 59.2855 84.6044C60.6587 84.6044 61.901 84.7446 63.0126 85.0251C64.146 85.2855 64.9742 85.576 65.4973 85.8965L64.4838 88.2703C64.0261 88.0099 63.3395 87.7595 62.4241 87.5191C61.5305 87.2587 60.4843 87.1285 59.2855 87.1285C58.6753 87.1285 58.1086 87.1886 57.5855 87.3088C57.0624 87.429 56.6047 87.6093 56.2124 87.8497C55.82 88.09 55.504 88.4006 55.2643 88.7812C55.0463 89.1418 54.9373 89.5724 54.9373 90.0733C54.9373 90.6342 55.0572 91.1049 55.2969 91.4855C55.5367 91.8662 55.8745 92.2067 56.3104 92.5072C56.7464 92.7877 57.2477 93.0481 57.8143 93.2885C58.4028 93.5289 59.0458 93.7692 59.7433 94.0096C60.7241 94.3702 61.6177 94.7308 62.4241 95.0914C63.2524 95.452 63.9607 95.8827 64.5492 96.3835C65.1595 96.8843 65.6281 97.4853 65.955 98.1864C66.282 98.8675 66.4454 99.6988 66.4454 100.68C66.4454 102.503 65.7153 103.906 64.255 104.887C62.8164 105.869 60.7785 106.36 58.1413 106.36C57.2477 106.36 56.4194 106.31 55.6566 106.209C54.9155 106.089 54.2508 105.959 53.6623 105.819C53.0738 105.658 52.5616 105.498 52.1257 105.338C51.7116 105.158 51.3846 105.007 51.1449 104.887L52.093 102.483C52.5943 102.744 53.3571 103.034 54.3815 103.355C55.4059 103.675 56.6592 103.836 58.1413 103.836ZM78.8362 105.909H75.665V97.5554C74.1611 95.4119 72.7444 93.2985 71.4148 91.2151C70.0853 89.1317 68.832 87.0884 67.6551 85.0852H71.3821C72.2104 86.7278 73.1367 88.4006 74.1611 90.1033C75.1855 91.786 76.2426 93.4087 77.3323 94.9712C78.4003 93.4087 79.4465 91.786 80.4709 90.1033C81.4953 88.4006 82.4325 86.7278 83.2826 85.0852H86.8134C85.6365 87.0884 84.3832 89.1317 83.0537 91.2151C81.7242 93.2784 80.3183 95.3718 78.8362 97.4953V105.909ZM92.9925 103.385H103.454V105.909H89.8212V85.0852H92.9925V103.385ZM121.436 105.909H106.789V85.0852H120.618V87.5792H109.96V93.7692H119.442V96.2032H109.96V103.415H121.436V105.909ZM131.571 106.089C131.113 106.089 130.612 106.079 130.067 106.059C129.544 106.039 129.01 106.009 128.465 105.969C127.942 105.929 127.419 105.879 126.896 105.819C126.373 105.759 125.893 105.679 125.457 105.578V85.3857C125.893 85.2855 126.373 85.2054 126.896 85.1453C127.419 85.0852 127.942 85.0351 128.465 84.995C129.01 84.955 129.544 84.9249 130.067 84.9049C130.59 84.8849 131.08 84.8748 131.538 84.8748C132.846 84.8748 134.066 84.965 135.2 85.1453C136.355 85.3256 137.347 85.6361 138.175 86.0768C139.025 86.4975 139.69 87.0584 140.169 87.7595C140.649 88.4606 140.888 89.322 140.888 90.3437C140.888 91.4855 140.594 92.4271 140.006 93.1683C139.417 93.8894 138.633 94.4303 137.652 94.7909C138.981 95.1515 140.038 95.7224 140.823 96.5037C141.608 97.2849 142 98.3867 142 99.809C142 101.892 141.161 103.465 139.483 104.527C137.826 105.568 135.189 106.089 131.571 106.089ZM132.682 96.2032H128.596V103.535C128.835 103.555 129.119 103.575 129.446 103.595C129.729 103.615 130.056 103.635 130.427 103.655C130.819 103.655 131.266 103.655 131.767 103.655C132.704 103.655 133.587 103.605 134.415 103.505C135.265 103.385 136.006 103.184 136.638 102.904C137.27 102.624 137.772 102.233 138.142 101.732C138.535 101.231 138.731 100.6 138.731 99.8391C138.731 99.158 138.589 98.587 138.306 98.1263C138.022 97.6455 137.608 97.2649 137.063 96.9844C136.54 96.704 135.908 96.5037 135.167 96.3835C134.426 96.2633 133.598 96.2032 132.682 96.2032ZM128.596 87.429V93.8594H131.93C132.715 93.8594 133.456 93.8093 134.154 93.7091C134.851 93.609 135.45 93.4287 135.952 93.1683C136.475 92.9078 136.878 92.5673 137.161 92.1466C137.467 91.7259 137.619 91.1951 137.619 90.554C137.619 89.9531 137.467 89.4523 137.161 89.0516C136.856 88.6309 136.431 88.3004 135.886 88.06C135.363 87.7996 134.742 87.6093 134.023 87.4891C133.304 87.3689 132.541 87.3088 131.734 87.3088C130.928 87.3088 130.296 87.3188 129.838 87.3388C129.38 87.3589 128.966 87.3889 128.596 87.429Z" fill="white"/>
</svg>
